<svg width="20" height="20" fill="none" xmlns="http://www.w3.org/2000/svg"><g clip-path="url(#clip0_138_1165)"><path d="M10 19.167A9.167 9.167 0 1010 .833a9.167 9.167 0 000 18.334z" fill="#1F9914"/><path fill-rule="evenodd" clip-rule="evenodd" d="M14.6 5.174a.625.625 0 01.226.855l-4.586 7.857a1.342 1.342 0 01-1.48.628 1.313 1.313 0 01-.51-.257l-2.926-2.34a.625.625 0 01.78-.976l2.936 2.348a.061.061 0 00.05.013l.01-.002a.088.088 0 00.06-.043L13.747 5.4a.625.625 0 01.855-.225z" fill="#fff"/></g><defs><clipPath id="clip0_138_1165"><path fill="#fff" d="M0 0h20v20H0z"/></clipPath></defs></svg>