<svg width="20" height="20" viewBox="0 0 20 20" fill="none" xmlns="http://www.w3.org/2000/svg">
<g clip-path="url(#clip0_138_1165)">
<path d="M9.99998 19.1667C15.0626 19.1667 19.1666 15.0626 19.1666 10C19.1666 4.9374 15.0626 0.833344 9.99998 0.833344C4.93737 0.833344 0.833313 4.9374 0.833313 10C0.833313 15.0626 4.93737 19.1667 9.99998 19.1667Z" fill="#1F9914"/>
<path fill-rule="evenodd" clip-rule="evenodd" d="M14.6007 5.17448C14.8988 5.34848 14.9995 5.7312 14.8255 6.02932L10.2402 13.8857C10.2401 13.8859 10.2403 13.8855 10.2402 13.8857C10.1435 14.0517 10.0119 14.1956 9.85491 14.3064C9.69889 14.4165 9.52114 14.492 9.33359 14.5278C9.14399 14.5654 8.9484 14.5606 8.76084 14.5137C8.57356 14.4668 8.39897 14.3792 8.24951 14.2572L5.32382 11.9166C5.05428 11.701 5.01058 11.3077 5.22621 11.0381C5.44184 10.7686 5.83515 10.7249 6.10469 10.9405L9.04018 13.2889C9.04714 13.2946 9.05526 13.2988 9.06401 13.301C9.07275 13.3032 9.08188 13.3034 9.09073 13.3016L9.09901 13.2999C9.11162 13.2976 9.12358 13.2926 9.13405 13.2852C9.14453 13.2778 9.15329 13.2682 9.15974 13.2571L13.7459 5.39923C13.9199 5.10111 14.3026 5.00049 14.6007 5.17448Z" fill="white"/>
</g>
<defs>
<clipPath id="clip0_138_1165">
<rect width="20" height="20" fill="white"/>
</clipPath>
</defs>
</svg>
