<?xml version="1.0" encoding="utf-8"?><svg viewBox="0 0 24 24" xmlns="http://www.w3.org/2000/svg" xmlns:xlink="http://www.w3.org/1999/xlink"><style>:root>svg{display:none}:root>svg:target{display:block}</style><svg viewBox="0 0 24 24" id="arrow-down" xmlns="http://www.w3.org/2000/svg"><path fill-rule="evenodd" clip-rule="evenodd" d="M12 15.111l5.462-5.633a.75.75 0 011.076 1.044l-5.67 5.85a1.192 1.192 0 01-.868.378 1.18 1.18 0 01-.868-.379l-5.67-5.849a.75.75 0 111.076-1.044L12 15.11z"/></svg><svg fill="none" viewBox="0 0 24 24" id="arrow-left" xmlns="http://www.w3.org/2000/svg"><path fill-rule="evenodd" clip-rule="evenodd" d="M8.889 13l5.633 5.462a.75.75 0 11-1.044 1.076l-5.85-5.67A1.192 1.192 0 017.25 13a1.181 1.181 0 01.379-.868l5.849-5.67a.75.75 0 111.044 1.076L8.889 13z" fill="#2E3239"/></svg><svg fill="none" viewBox="0 0 24 24" id="arrow-right" xmlns="http://www.w3.org/2000/svg"><path fill-rule="evenodd" clip-rule="evenodd" d="M15.111 12L9.479 6.538a.75.75 0 011.044-1.076l5.85 5.67a1.192 1.192 0 01.378.868 1.18 1.18 0 01-.379.868l-5.849 5.67a.75.75 0 01-1.044-1.076L15.11 12z" fill="#2E3239"/></svg><svg fill="none" viewBox="0 0 24 24" id="arrow-top" xmlns="http://www.w3.org/2000/svg"><path fill-rule="evenodd" clip-rule="evenodd" d="M12 9.889l-5.462 5.633a.75.75 0 01-1.076-1.044l5.67-5.85A1.192 1.192 0 0112 8.25a1.181 1.181 0 01.868.379l5.67 5.849a.75.75 0 11-1.076 1.044L12 9.889z" fill="#2E3239"/></svg><svg fill="none" viewBox="0 0 24 24" id="catalog" xmlns="http://www.w3.org/2000/svg"><path d="M20.4 6H4.8m15.6 6H4.8m15.6 6H4.8" stroke="#2E3239" stroke-width="1.5" stroke-linecap="round" stroke-linejoin="round"/></svg><svg fill="none" viewBox="0 0 24 24" id="check-empty" xmlns="http://www.w3.org/2000/svg"><path fill-rule="evenodd" clip-rule="evenodd" d="M17.52 6.21a.75.75 0 01.27 1.025l-5.502 9.428a1.611 1.611 0 01-1.775.753 1.573 1.573 0 01-.614-.307l-3.51-2.81a.75.75 0 01.937-1.17l3.522 2.818a.074.074 0 00.06.015l.01-.002a.106.106 0 00.074-.052l5.503-9.429a.75.75 0 011.026-.27z" fill="#2E3239"/><path fill-rule="evenodd" clip-rule="evenodd" d="M12 2.387a9.613 9.613 0 100 19.225 9.613 9.613 0 000-19.225zM1 12C1 5.925 5.925 1 12 1s11 4.925 11 11-4.925 11-11 11S1 18.075 1 12z" fill="#2E3239"/></svg><svg fill="none" viewBox="0 0 24 24" id="check-fill" xmlns="http://www.w3.org/2000/svg"><path d="M12 23c6.075 0 11-4.925 11-11S18.075 1 12 1 1 5.925 1 12s4.925 11 11 11z" fill="#2E3239"/><path fill-rule="evenodd" clip-rule="evenodd" d="M17.52 6.21a.75.75 0 01.27 1.025l-5.502 9.428a1.611 1.611 0 01-1.775.753 1.573 1.573 0 01-.614-.307l-3.51-2.81a.75.75 0 01.937-1.17l3.522 2.818a.074.074 0 00.06.015l.01-.002a.106.106 0 00.074-.052l5.503-9.429a.75.75 0 011.026-.27z" fill="#fff"/></svg><svg fill="none" viewBox="0 0 24 24" id="load" xmlns="http://www.w3.org/2000/svg"><path d="M12 14.571a2.571 2.571 0 100-5.142 2.571 2.571 0 000 5.142zm9-.428a2.143 2.143 0 100-4.286 2.143 2.143 0 000 4.286zm-18 0a2.143 2.143 0 100-4.286 2.143 2.143 0 000 4.286z" stroke="#D9DADC" stroke-linecap="round" stroke-linejoin="round"/></svg><svg fill="none" viewBox="0 0 24 24" id="mail" xmlns="http://www.w3.org/2000/svg"><path fill-rule="evenodd" clip-rule="evenodd" d="M3.538 5.57c-.52 0-.788.357-.788.618v11.624c0 .26.267.618.788.618h16.924c.52 0 .788-.357.788-.618V6.188c0-.26-.267-.618-.788-.618H3.538zm-2.288.618c0-1.25 1.11-2.118 2.288-2.118h16.924c1.178 0 2.288.868 2.288 2.118v11.624c0 1.25-1.11 2.118-2.288 2.118H3.538c-1.178 0-2.288-.868-2.288-2.118V6.188z" fill="#2E3239"/><path fill-rule="evenodd" clip-rule="evenodd" d="M1.402 6.077a.75.75 0 011.05-.145l9.012 6.835c.141.103.33.167.536.167a.91.91 0 00.535-.167l9.012-6.835a.75.75 0 11.906 1.195l-9.022 6.843a2.409 2.409 0 01-1.431.464c-.513 0-1.02-.159-1.431-.464l-.007-.005-9.016-6.838a.75.75 0 01-.144-1.05z" fill="#2E3239"/></svg><svg viewBox="0 0 24 24" id="phone" xmlns="http://www.w3.org/2000/svg"><path fill-rule="evenodd" clip-rule="evenodd" d="M4.204 2.666a2.333 2.333 0 013.265 0l.006.007 2.686 2.69a2.324 2.324 0 01-.01 3.265.686.686 0 000 .978l.005.004 4.228 4.235a.712.712 0 00.993-.002A.81.81 0 0116.513 15l-1.138-1.156a2.32 2.32 0 013.254 0l.002.002 2.704 2.68a2.338 2.338 0 010 3.266l-.013.013-.63.617a5.308 5.308 0 01-6.655.728l-.014-.009A41.67 41.67 0 012.858 9.988l-.01-.016a5.324 5.324 0 01.727-6.662l.616-.63.013-.014zM17.49 15a.697.697 0 00-.978 0l-.001.002a2.333 2.333 0 01-3.265 0l-.007-.006-4.23-4.237.002.002.57-.577-.574.573.002.002a2.309 2.309 0 01-.004-3.28.702.702 0 00-.001-.978L6.331 3.822a.712.712 0 00-.987-.002l-.624.638a3.699 3.699 0 00-.514 4.629 40.05 40.05 0 0010.718 10.706 3.684 3.684 0 004.619-.514l.01-.01.627-.615a.717.717 0 00-.001-.991l-2.688-2.664z"/><path d="M15.556 13.69l-.237.202.178.469.975.675.148-.122.49-.503-.03-.52-1.047-.426-.477.224zm-6.453-2.843l-.148-.152c.2-.253.604-.76.621-.76.017 0 .182.107.262.16l-.735.752z"/></svg><svg viewBox="0 0 24 24" id="search" xmlns="http://www.w3.org/2000/svg"><path d="M10.519 17.952a7.433 7.433 0 100-14.866 7.433 7.433 0 000 14.866zm10.395 2.962l-5.143-5.143"/></svg></svg>