<?xml version="1.0" encoding="utf-8"?><svg viewBox="0 0 32 32" xmlns="http://www.w3.org/2000/svg" xmlns:xlink="http://www.w3.org/1999/xlink"><style>:root>svg{display:none}:root>svg:target{display:block}</style><svg viewBox="0 0 24 24" id="arrow-down" xmlns="http://www.w3.org/2000/svg"><path fill-rule="evenodd" clip-rule="evenodd" d="M12 15.111l5.462-5.633a.75.75 0 011.076 1.044l-5.67 5.85a1.192 1.192 0 01-.868.378 1.18 1.18 0 01-.868-.379l-5.67-5.849a.75.75 0 111.076-1.044L12 15.11z"/></svg><svg fill="none" viewBox="0 0 24 24" id="arrow-left" xmlns="http://www.w3.org/2000/svg"><path fill-rule="evenodd" clip-rule="evenodd" d="M8.889 13l5.633 5.462a.75.75 0 11-1.044 1.076l-5.85-5.67A1.192 1.192 0 017.25 13a1.181 1.181 0 01.379-.868l5.849-5.67a.75.75 0 111.044 1.076L8.889 13z" fill="#2E3239"/></svg><svg fill="none" viewBox="0 0 24 24" id="arrow-right" xmlns="http://www.w3.org/2000/svg"><path fill-rule="evenodd" clip-rule="evenodd" d="M15.111 12L9.479 6.538a.75.75 0 011.044-1.076l5.85 5.67a1.192 1.192 0 01.378.868 1.18 1.18 0 01-.379.868l-5.849 5.67a.75.75 0 01-1.044-1.076L15.11 12z" fill="#2E3239"/></svg><svg fill="none" viewBox="0 0 24 24" id="arrow-top" xmlns="http://www.w3.org/2000/svg"><path fill-rule="evenodd" clip-rule="evenodd" d="M12 9.889l-5.462 5.633a.75.75 0 01-1.076-1.044l5.67-5.85A1.192 1.192 0 0112 8.25a1.181 1.181 0 01.868.379l5.67 5.849a.75.75 0 11-1.076 1.044L12 9.889z" fill="#2E3239"/></svg><svg viewBox="0 0 24 25" id="brands" xmlns="http://www.w3.org/2000/svg"><path d="M7.712 23.428a.486.486 0 01-.46-.024m.46.024L7.125 23l-.1-.001a.466.466 0 00.226.405m.46.024l.002-.001L12 21.284l4.286 2.143H7.712zm-.46-.024l.052-.085-.051.086zM19.975 9.5a7.976 7.976 0 10-12.95 6.226l9.306 7.611a.376.376 0 00.544-.337h.1v-7.274a7.956 7.956 0 003-6.226zm0 0h-.1.1zm-8.189 10.823l-3.81 1.907v-5.85a7.946 7.946 0 008.05 0v5.849l-3.811-1.906-.005-.002a.52.52 0 00-.418 0l-.005.002zM12 16.525A7.025 7.025 0 1119.025 9.5 7.034 7.034 0 0112 16.525zm0-12a4.975 4.975 0 100 9.95 4.975 4.975 0 000-9.95zm0 9a4.025 4.025 0 110-8.05 4.025 4.025 0 010 8.05z"/></svg><svg viewBox="0 0 24 24" id="catalog" xmlns="http://www.w3.org/2000/svg"><path d="M20.4 6H4.8m15.6 6H4.8m15.6 6H4.8"/></svg><svg fill="none" viewBox="0 0 24 24" id="check-empty" xmlns="http://www.w3.org/2000/svg"><path fill-rule="evenodd" clip-rule="evenodd" d="M17.52 6.21a.75.75 0 01.27 1.025l-5.502 9.428a1.611 1.611 0 01-1.775.753 1.573 1.573 0 01-.614-.307l-3.51-2.81a.75.75 0 01.937-1.17l3.522 2.818a.074.074 0 00.06.015l.01-.002a.106.106 0 00.074-.052l5.503-9.429a.75.75 0 011.026-.27z" fill="#2E3239"/><path fill-rule="evenodd" clip-rule="evenodd" d="M12 2.387a9.613 9.613 0 100 19.225 9.613 9.613 0 000-19.225zM1 12C1 5.925 5.925 1 12 1s11 4.925 11 11-4.925 11-11 11S1 18.075 1 12z" fill="#2E3239"/></svg><svg fill="none" viewBox="0 0 24 24" id="check-fill" xmlns="http://www.w3.org/2000/svg"><path d="M12 23c6.075 0 11-4.925 11-11S18.075 1 12 1 1 5.925 1 12s4.925 11 11 11z" fill="#2E3239"/><path fill-rule="evenodd" clip-rule="evenodd" d="M17.52 6.21a.75.75 0 01.27 1.025l-5.502 9.428a1.611 1.611 0 01-1.775.753 1.573 1.573 0 01-.614-.307l-3.51-2.81a.75.75 0 01.937-1.17l3.522 2.818a.074.074 0 00.06.015l.01-.002a.106.106 0 00.074-.052l5.503-9.429a.75.75 0 011.026-.27z" fill="#fff"/></svg><svg viewBox="0 0 24 25" id="home" xmlns="http://www.w3.org/2000/svg"><path d="M12.459 2.16a.758.758 0 00-.931 0L.75 10.565l.932 1.18L3 10.715V20a1.503 1.503 0 001.5 1.5h15A1.503 1.503 0 0021 20v-9.277l1.318 1.027.932-1.179-10.791-8.41zM13.5 20h-3v-6h3v6zm1.5 0v-6a1.502 1.502 0 00-1.5-1.5h-3A1.502 1.502 0 009 14v6H4.5V9.547L12 3.704l7.5 5.85V20H15z"/></svg><svg fill="none" viewBox="0 0 24 24" id="load" xmlns="http://www.w3.org/2000/svg"><path d="M12 14.571a2.571 2.571 0 100-5.142 2.571 2.571 0 000 5.142zm9-.428a2.143 2.143 0 100-4.286 2.143 2.143 0 000 4.286zm-18 0a2.143 2.143 0 100-4.286 2.143 2.143 0 000 4.286z" stroke="#D9DADC" stroke-linecap="round" stroke-linejoin="round"/></svg><svg viewBox="0 0 24 24" id="mail" xmlns="http://www.w3.org/2000/svg"><path fill-rule="evenodd" clip-rule="evenodd" d="M3.538 5.57c-.52 0-.788.357-.788.618v11.624c0 .26.267.618.788.618h16.924c.52 0 .788-.357.788-.618V6.188c0-.26-.267-.618-.788-.618H3.538zm-2.288.618c0-1.25 1.11-2.118 2.288-2.118h16.924c1.178 0 2.288.868 2.288 2.118v11.624c0 1.25-1.11 2.118-2.288 2.118H3.538c-1.178 0-2.288-.868-2.288-2.118V6.188z"/><path fill-rule="evenodd" clip-rule="evenodd" d="M1.402 6.077a.75.75 0 011.05-.145l9.012 6.835c.141.103.33.167.536.167a.91.91 0 00.535-.167l9.012-6.835a.75.75 0 11.906 1.195l-9.022 6.843a2.409 2.409 0 01-1.431.464c-.513 0-1.02-.159-1.431-.464l-.007-.005-9.016-6.838a.75.75 0 01-.144-1.05z"/></svg><svg fill="none" viewBox="0 0 26 26" id="people" xmlns="http://www.w3.org/2000/svg"><path d="M15.983 10.833c1.047 0 1.896.85 1.896 1.896v5.145a4.876 4.876 0 11-9.752 0v-5.145c0-1.046.848-1.896 1.896-1.896h5.96zm-8.258 0a2.947 2.947 0 00-.671 1.658l-.011.238v5.145c0 .918.208 1.786.578 2.562a4.334 4.334 0 01-5.454-4.187v-3.52a1.896 1.896 0 011.74-1.89l.155-.006h3.663zm10.556 0h3.657c1.046 0 1.895.85 1.895 1.896v3.521a4.332 4.332 0 01-5.449 4.188 5.91 5.91 0 00.569-2.223l.01-.341v-5.145a2.96 2.96 0 00-.682-1.896zM13 3.25a3.25 3.25 0 110 6.5 3.25 3.25 0 010-6.5zm7.042 1.083a2.708 2.708 0 110 5.417 2.708 2.708 0 010-5.417zm-14.084 0a2.708 2.708 0 110 5.417 2.708 2.708 0 010-5.417z" fill="#2965CE"/></svg><svg viewBox="0 0 24 24" id="phone" xmlns="http://www.w3.org/2000/svg"><path fill-rule="evenodd" clip-rule="evenodd" d="M4.204 2.666a2.333 2.333 0 013.265 0l.006.007 2.686 2.69a2.324 2.324 0 01-.01 3.265.686.686 0 000 .978l.005.004 4.228 4.235a.712.712 0 00.993-.002A.81.81 0 0116.513 15l-1.138-1.156a2.32 2.32 0 013.254 0l.002.002 2.704 2.68a2.338 2.338 0 010 3.266l-.013.013-.63.617a5.308 5.308 0 01-6.655.728l-.014-.009A41.67 41.67 0 012.858 9.988l-.01-.016a5.324 5.324 0 01.727-6.662l.616-.63.013-.014zM17.49 15a.697.697 0 00-.978 0l-.001.002a2.333 2.333 0 01-3.265 0l-.007-.006-4.23-4.237.002.002.57-.577-.574.573.002.002a2.309 2.309 0 01-.004-3.28.702.702 0 00-.001-.978L6.331 3.822a.712.712 0 00-.987-.002l-.624.638a3.699 3.699 0 00-.514 4.629 40.05 40.05 0 0010.718 10.706 3.684 3.684 0 004.619-.514l.01-.01.627-.615a.717.717 0 00-.001-.991l-2.688-2.664z"/><path d="M15.556 13.69l-.237.202.178.469.975.675.148-.122.49-.503-.03-.52-1.047-.426-.477.224zm-6.453-2.843l-.148-.152c.2-.253.604-.76.621-.76.017 0 .182.107.262.16l-.735.752z"/></svg><svg viewBox="0 0 24 24" id="search" xmlns="http://www.w3.org/2000/svg"><path d="M10.519 17.952a7.433 7.433 0 100-14.866 7.433 7.433 0 000 14.866zm10.395 2.962l-5.143-5.143"/></svg><svg viewBox="0 0 32 32" id="telegram" xmlns="http://www.w3.org/2000/svg"><path d="M16 2.667C8.64 2.667 2.667 8.64 2.667 16S8.64 29.333 16 29.333 29.333 23.36 29.333 16 23.36 2.667 16 2.667zm6.187 9.066c-.2 2.107-1.067 7.227-1.507 9.587-.187 1-.56 1.333-.907 1.373-.773.067-1.36-.506-2.106-1-1.174-.773-1.84-1.253-2.974-2-1.32-.866-.466-1.346.294-2.12.2-.2 3.613-3.306 3.68-3.586a.265.265 0 00-.067-.24c-.08-.067-.187-.04-.28-.027-.12.027-1.987 1.267-5.627 3.72-.533.36-1.013.547-1.44.533-.48-.013-1.386-.266-2.066-.493-.84-.267-1.494-.413-1.44-.88.026-.24.36-.48.986-.733 3.894-1.694 6.48-2.814 7.774-3.347 3.706-1.547 4.466-1.813 4.973-1.813.107 0 .36.026.52.16a.53.53 0 01.187.36c-.014.08.013.32 0 .506z"/></svg><svg viewBox="0 0 32 32" id="vk" xmlns="http://www.w3.org/2000/svg"><path fill-rule="evenodd" clip-rule="evenodd" d="M30.294 8.25c.222-.705 0-1.218-.985-1.218h-3.273c-.825 0-1.207.45-1.43.93 0 0-1.683 4.1-4.034 6.757-.763.77-1.112 1.025-1.525 1.025-.223 0-.509-.256-.509-.96V8.217c0-.833-.254-1.217-.953-1.217h-5.148c-.508 0-.826.384-.826.769 0 .8 1.176.993 1.303 3.235v4.871c0 1.057-.188 1.25-.604 1.25-1.112 0-3.813-4.132-5.433-8.84C6.564 7.352 6.243 7 5.418 7H2.111C1.159 7 1 7.448 1 7.929c0 .865 1.112 5.22 5.179 10.985 2.7 3.938 6.545 6.054 10.008 6.054 2.097 0 2.351-.48 2.351-1.281v-2.979c0-.96.19-1.12.858-1.12.476 0 1.335.255 3.273 2.145C24.892 23.975 25.274 25 26.513 25h3.273c.953 0 1.398-.48 1.143-1.41-.285-.928-1.366-2.273-2.764-3.874-.762-.897-1.906-1.89-2.256-2.37-.476-.641-.349-.897 0-1.473-.031 0 3.972-5.702 4.385-7.625"/></svg><svg viewBox="0 0 32 32" id="wa" xmlns="http://www.w3.org/2000/svg"><path d="M16 26.667a10.667 10.667 0 100-21.334 10.667 10.667 0 000 21.334zm0 2.666C8.636 29.333 2.667 23.364 2.667 16S8.636 2.667 16 2.667 29.333 8.637 29.333 16c0 7.364-5.969 13.333-13.333 13.333z"/><path d="M20.859 15.205c.016-1.989-1.626-3.813-3.659-4.065l-.133-.02a1.857 1.857 0 00-.31-.035c-.417 0-.528.302-.557.482a.571.571 0 00.08.438c.139.194.381.227.576.256.057.008.112.015.156.027 1.828.42 2.444 1.083 2.744 2.953.008.047.01.103.013.163.014.223.042.688.527.688.04 0 .083-.003.128-.01.452-.071.437-.497.43-.7a1.107 1.107 0 01.003-.175l.002-.002z"/><path d="M16.64 10.41c.053.004.107.008.148.014 3 .478 4.381 1.944 4.764 5.067.007.053.007.117.008.187.004.243.012.75.54.76h.016a.51.51 0 00.392-.152c.164-.178.153-.44.144-.654-.003-.05-.005-.1-.004-.143.037-3.193-2.64-6.089-5.73-6.195h-.038a.25.25 0 01-.036.004c-.03 0-.07-.003-.11-.006a1.947 1.947 0 00-.16-.008c-.491 0-.585.36-.597.576-.026.498.439.534.663.55zm4.767 9.116a9.68 9.68 0 01-.191-.154c-.328-.272-.677-.523-1.013-.765l-.211-.152c-.432-.312-.82-.465-1.187-.465-.493 0-.924.282-1.28.838-.157.245-.349.366-.584.366a1.13 1.13 0 01-.47-.122c-1.394-.653-2.39-1.653-2.959-2.973-.275-.64-.187-1.056.299-1.396.274-.192.786-.55.75-1.237-.04-.78-1.708-3.127-2.41-3.394-.3-.113-.63-.114-.931-.002-.807.28-1.387.773-1.676 1.422-.28.63-.267 1.367.037 2.135.876 2.221 2.107 4.157 3.662 5.754 1.52 1.564 3.389 2.845 5.554 3.807.195.087.4.134.55.168l.126.032a.205.205 0 00.054.008h.017c1.019 0 2.241-.96 2.617-2.056.33-.96-.272-1.433-.754-1.813v-.002zm-4.316-6.58c-.174.005-.538.014-.666.396-.058.178-.052.333.022.46.108.186.316.244.504.274.682.114 1.034.504 1.104 1.227.033.338.253.573.536.573.021 0 .042 0 .064-.002.34-.043.504-.3.489-.767.005-.488-.241-1.04-.661-1.48-.422-.443-.93-.692-1.392-.68z"/></svg></svg>