<svg width="24" height="24" viewBox="0 0 24 24" xmlns="http://www.w3.org/2000/svg">
<path fill-rule="evenodd" clip-rule="evenodd" d="M12 15.1115L17.4615 9.47795C17.7498 9.18056 18.2246 9.17319 18.522 9.46151C18.8194 9.74983 18.8268 10.2246 18.5385 10.522L12.8678 16.3713C12.7595 16.4875 12.6285 16.5817 12.4818 16.6472C12.3305 16.7148 12.1665 16.75 12 16.75C11.8335 16.75 11.6695 16.7148 11.5182 16.6472C11.3715 16.5817 11.2405 16.4875 11.1322 16.3713L5.46151 10.522C5.17319 10.2246 5.18056 9.74983 5.47795 9.46151C5.77535 9.17319 6.25017 9.18056 6.53849 9.47795L12 15.1115Z"/>
</svg>
