<svg width="24" height="24" viewBox="0 0 24 24" fill="none" xmlns="http://www.w3.org/2000/svg">
<path fill-rule="evenodd" clip-rule="evenodd" d="M12 9.88851L6.53849 15.522C6.25017 15.8194 5.77535 15.8268 5.47796 15.5385C5.18056 15.2502 5.1732 14.7754 5.46151 14.478L11.1322 8.62871C11.2405 8.51251 11.3715 8.4183 11.5182 8.35279C11.6695 8.28523 11.8335 8.25 12 8.25C12.1665 8.25 12.3305 8.28523 12.4818 8.35279C12.6285 8.4183 12.7595 8.51251 12.8678 8.62871L18.5385 14.478C18.8268 14.7754 18.8194 15.2502 18.522 15.5385C18.2246 15.8268 17.7498 15.8194 17.4615 15.522L12 9.88851Z" fill="#2E3239"/>
</svg>
