<svg width="24" height="24" viewBox="0 0 24 24" xmlns="http://www.w3.org/2000/svg">
<path fill-rule="evenodd" clip-rule="evenodd" d="M8.88851 13L14.522 18.4615C14.8194 18.7498 14.8268 19.2246 14.5385 19.522C14.2502 19.8194 13.7754 19.8268 13.478 19.5385L7.62871 13.8678C7.51251 13.7595 7.4183 13.6285 7.35279 13.4818C7.28523 13.3305 7.25 13.1665 7.25 13C7.25 12.8335 7.28523 12.6695 7.35279 12.5182C7.4183 12.3715 7.51251 12.2405 7.62871 12.1322L13.478 6.46151C13.7754 6.17319 14.2502 6.18056 14.5385 6.47795C14.8268 6.77535 14.8194 7.25017 14.522 7.53849L8.88851 13Z"/>
</svg>
