<svg width="24" height="24" viewBox="0 0 24 24" fill="none" xmlns="http://www.w3.org/2000/svg">
<path fill-rule="evenodd" clip-rule="evenodd" d="M15.1115 12L9.47795 6.53849C9.18056 6.25017 9.17319 5.77535 9.46151 5.47796C9.74983 5.18056 10.2246 5.17319 10.522 5.46151L16.3713 11.1322C16.4875 11.2405 16.5817 11.3715 16.6472 11.5182C16.7148 11.6695 16.75 11.8335 16.75 12C16.75 12.1665 16.7148 12.3305 16.6472 12.4818C16.5817 12.6285 16.4875 12.7595 16.3713 12.8678L10.522 18.5385C10.2246 18.8268 9.74983 18.8194 9.46151 18.522C9.17319 18.2246 9.18056 17.7498 9.47795 17.4615L15.1115 12Z" fill="#2E3239"/>
</svg>
