<svg width="24" height="25" viewBox="0 0 24 25" xmlns="http://www.w3.org/2000/svg">
<path d="M7.71181 23.4278L7.71181 23.4278C7.6391 23.4624 7.55889 23.4784 7.47844 23.4743C7.39814 23.4702 7.32014 23.4462 7.25145 23.4044M7.71181 23.4278L7.125 23L7.02501 22.9987C7.02501 22.9989 7.025 22.9991 7.025 22.9994C7.02404 23.0807 7.04443 23.1609 7.08413 23.232C7.12387 23.3031 7.18156 23.3625 7.25145 23.4044M7.71181 23.4278L7.71347 23.4269L12 21.2837L16.2862 23.4268C16.2863 23.4268 16.2863 23.4269 16.2864 23.4269L7.71181 23.4278ZM7.25145 23.4044C7.25132 23.4043 7.25119 23.4042 7.25106 23.4041L7.30312 23.3188L7.25185 23.4046C7.25172 23.4045 7.25159 23.4044 7.25145 23.4044ZM19.975 9.50005C19.9761 8.14851 19.6337 6.81885 18.98 5.63593C18.3262 4.45301 17.3826 3.45564 16.2376 2.73747C15.0926 2.01931 13.7839 1.60392 12.4344 1.53031C11.0848 1.4567 9.73869 1.72727 8.5224 2.31664C7.30612 2.906 6.25956 3.79481 5.48102 4.89961C4.70248 6.00441 4.2175 7.28895 4.0716 8.63261C3.92571 9.97627 4.12369 11.335 4.64697 12.5811C5.16397 13.8123 5.98175 14.8937 7.025 15.7264L16.3312 23.3375C16.3886 23.3664 16.4525 23.3801 16.5166 23.3773C16.5808 23.3744 16.6432 23.3551 16.6978 23.3212C16.7524 23.2874 16.7973 23.24 16.8284 23.1838C16.8594 23.1275 16.8754 23.0642 16.875 23H16.975V22.9997V15.7265C17.9045 14.9863 18.6566 14.0472 19.1758 12.9779C19.7021 11.8941 19.9754 10.7049 19.975 9.50005ZM19.975 9.50005C19.975 9.50003 19.975 9.5 19.975 9.49997L19.875 9.5L19.975 9.50009C19.975 9.50007 19.975 9.50006 19.975 9.50005ZM11.7865 20.3231L7.975 22.2288V16.3801C9.19431 17.0964 10.5837 17.4748 12 17.4748C13.4163 17.4748 14.8057 17.0964 16.025 16.3801V22.2288L12.2135 20.3231L12.2135 20.3229L12.2087 20.3209C12.1429 20.2921 12.0718 20.2773 12 20.2773C11.9282 20.2773 11.8571 20.2921 11.7912 20.3209L11.7912 20.3207L11.7865 20.3231ZM11.9999 16.525C10.6105 16.525 9.25234 16.113 8.09712 15.3411C6.94186 14.5692 6.04145 13.472 5.50975 12.1884C4.97804 10.9047 4.83892 9.49221 5.10998 8.12949C5.38104 6.76678 6.05011 5.51504 7.03257 4.53258C8.01504 3.55011 9.26677 2.88105 10.6295 2.60999C11.9922 2.33892 13.4047 2.47804 14.6883 3.00975C15.972 3.54145 17.0692 4.44187 17.8411 5.59712C18.613 6.75234 19.025 8.1105 19.025 9.49987C19.0226 11.3623 18.2816 13.1477 16.9647 14.4647C15.6477 15.7816 13.8623 16.5226 11.9999 16.525ZM12 4.525C11.016 4.525 10.0542 4.81678 9.23604 5.36344C8.4179 5.9101 7.78024 6.68709 7.4037 7.59615C7.02715 8.50522 6.92863 9.50552 7.12059 10.4706C7.31255 11.4356 7.78638 12.3221 8.48214 13.0179C9.17791 13.7136 10.0644 14.1874 11.0294 14.3794C11.9945 14.5714 12.9948 14.4728 13.9038 14.0963C14.8129 13.7198 15.5899 13.0821 16.1366 12.264C16.6832 11.4458 16.975 10.484 16.975 9.5C16.975 8.18055 16.4508 6.91514 15.5179 5.98215C14.5849 5.04915 13.3195 4.525 12 4.525ZM12 13.525C11.2039 13.525 10.4257 13.2889 9.76383 12.8467C9.10192 12.4044 8.58603 11.7758 8.28138 11.0403C7.97674 10.3048 7.89703 9.49554 8.05234 8.71476C8.20764 7.93399 8.59099 7.2168 9.15389 6.6539C9.7168 6.09099 10.434 5.70765 11.2148 5.55234C11.9955 5.39704 12.8048 5.47674 13.5403 5.78139C14.2758 6.08603 14.9044 6.60192 15.3467 7.26383C15.7889 7.92574 16.025 8.70393 16.025 9.5C16.025 10.5675 15.6009 11.5913 14.8461 12.3461C14.0913 13.1009 13.0675 13.525 12 13.525Z" stroke-width="0.2"/>
</svg>
