<svg width="24" height="24" viewBox="0 0 24 24" fill="none" xmlns="http://www.w3.org/2000/svg">
<path fill-rule="evenodd" clip-rule="evenodd" d="M17.5209 6.20937C17.8787 6.41816 17.9994 6.87742 17.7906 7.23517L12.2883 16.6628C12.2882 16.663 12.2884 16.6626 12.2883 16.6628C12.1722 16.8621 12.0143 17.0347 11.8259 17.1677C11.6387 17.2998 11.4254 17.3904 11.2003 17.4333C10.9728 17.4784 10.7381 17.4727 10.513 17.4164C10.2883 17.3602 10.0788 17.2551 9.89945 17.1086L6.38862 14.2999C6.06518 14.0412 6.01274 13.5692 6.27149 13.2457C6.53025 12.9223 7.00222 12.8699 7.32567 13.1286L10.8482 15.9467C10.8566 15.9536 10.8663 15.9585 10.8768 15.9612C10.8873 15.9638 10.8983 15.9641 10.9089 15.9619L10.9189 15.9599C10.934 15.9571 10.9483 15.9511 10.9609 15.9422C10.9735 15.9333 10.984 15.9218 10.9917 15.9085L16.4951 6.47907C16.7039 6.12133 17.1632 6.00058 17.5209 6.20937Z" fill="#2E3239"/>
<path fill-rule="evenodd" clip-rule="evenodd" d="M12.0002 2.38733C6.69131 2.38733 2.3876 6.69104 2.3876 11.9999C2.3876 17.3088 6.69131 21.6126 12.0002 21.6126C17.3091 21.6126 21.6128 17.3088 21.6128 11.9999C21.6128 6.69104 17.3091 2.38733 12.0002 2.38733ZM1.00021 11.9999C1.00021 5.92481 5.92508 0.999939 12.0002 0.999939C18.0753 0.999939 23.0002 5.92481 23.0002 11.9999C23.0002 18.0751 18.0753 22.9999 12.0002 22.9999C5.92508 22.9999 1.00021 18.0751 1.00021 11.9999Z" fill="#2E3239"/>
</svg>
