<svg width="24" height="24" viewBox="0 0 24 24" fill="none" xmlns="http://www.w3.org/2000/svg">
<path d="M3.99998 10.4V9.6H3.19998V10.4H3.99998ZM3.99998 16.8H3.19998V17.6H3.99998V16.8ZM20 10.4H20.8V9.6H20V10.4ZM20 16.8V17.6H20.8V16.8H20ZM21.6 5.6H22.4V5.2688L22.1664 5.0336L21.6 5.6ZM16.8 0.8L17.3664 0.2336L17.1312 0H16.8V0.8ZM3.19998 10.4V16.8H4.79998V10.4H3.19998ZM3.99998 17.6H5.59998V16H3.99998V17.6ZM7.99998 15.2V12H6.39998V15.2H7.99998ZM5.59998 9.6H3.99998V11.2H5.59998V9.6ZM7.99998 12C7.99998 11.3635 7.74712 10.753 7.29703 10.3029C6.84694 9.85286 6.2365 9.6 5.59998 9.6V11.2C5.81215 11.2 6.01563 11.2843 6.16566 11.4343C6.31569 11.5843 6.39998 11.7878 6.39998 12H7.99998ZM5.59998 17.6C6.2365 17.6 6.84694 17.3471 7.29703 16.8971C7.74712 16.447 7.99998 15.8365 7.99998 15.2H6.39998C6.39998 15.4122 6.31569 15.6157 6.16566 15.7657C6.01563 15.9157 5.81215 16 5.59998 16V17.6ZM9.59998 12V15.2H11.2V12H9.59998ZM14.4 15.2V12H12.8V15.2H14.4ZM14.4 12C14.4 11.3635 14.1471 10.753 13.697 10.3029C13.2469 9.85286 12.6365 9.6 12 9.6V11.2C12.2121 11.2 12.4156 11.2843 12.5657 11.4343C12.7157 11.5843 12.8 11.7878 12.8 12H14.4ZM12 17.6C12.6365 17.6 13.2469 17.3471 13.697 16.8971C14.1471 16.447 14.4 15.8365 14.4 15.2H12.8C12.8 15.4122 12.7157 15.6157 12.5657 15.7657C12.4156 15.9157 12.2121 16 12 16V17.6ZM9.59998 15.2C9.59998 15.8365 9.85283 16.447 10.3029 16.8971C10.753 17.3471 11.3635 17.6 12 17.6V16C11.7878 16 11.5843 15.9157 11.4343 15.7657C11.2843 15.6157 11.2 15.4122 11.2 15.2H9.59998ZM11.2 12C11.2 11.7878 11.2843 11.5843 11.4343 11.4343C11.5843 11.2843 11.7878 11.2 12 11.2V9.6C11.3635 9.6 10.753 9.85286 10.3029 10.3029C9.85283 10.753 9.59998 11.3635 9.59998 12H11.2ZM16 9.6V17.6H17.6V9.6H16ZM16.8 11.2H20V9.6H16.8V11.2ZM19.2 10.4V12.8H20.8V10.4H19.2ZM16.8 17.6H20V16H16.8V17.6ZM20.8 16.8V14.4H19.2V16.8H20.8ZM3.19998 8V2.4H1.59998V8H3.19998ZM20.8 5.6V8H22.4V5.6H20.8ZM3.99998 1.6H16.8V0H3.99998V1.6ZM16.2336 1.3664L21.0336 6.1664L22.1664 5.0336L17.3664 0.2336L16.2336 1.3664ZM3.19998 2.4C3.19998 2.18783 3.28426 1.98434 3.43429 1.83431C3.58432 1.68429 3.7878 1.6 3.99998 1.6V0C3.36346 0 2.75301 0.252856 2.30292 0.702944C1.85283 1.15303 1.59998 1.76348 1.59998 2.4H3.19998ZM1.59998 19.2V21.6H3.19998V19.2H1.59998ZM3.99998 24H20V22.4H3.99998V24ZM22.4 21.6V19.2H20.8V21.6H22.4ZM20 24C20.6365 24 21.2469 23.7471 21.697 23.2971C22.1471 22.847 22.4 22.2365 22.4 21.6H20.8C20.8 21.8122 20.7157 22.0157 20.5657 22.1657C20.4156 22.3157 20.2121 22.4 20 22.4V24ZM1.59998 21.6C1.59998 22.2365 1.85283 22.847 2.30292 23.2971C2.75301 23.7471 3.36346 24 3.99998 24V22.4C3.7878 22.4 3.58432 22.3157 3.43429 22.1657C3.28426 22.0157 3.19998 21.8122 3.19998 21.6H1.59998Z" fill="#2965CE"/>
</svg>
