<svg width="24" height="24" viewBox="0 0 24 24" fill="none" xmlns="http://www.w3.org/2000/svg">
<path d="M12 14.5714C13.4202 14.5714 14.5714 13.4202 14.5714 12C14.5714 10.5799 13.4202 9.42859 12 9.42859C10.5798 9.42859 9.42857 10.5799 9.42857 12C9.42857 13.4202 10.5798 14.5714 12 14.5714Z" stroke="#D9DADC" stroke-linecap="round" stroke-linejoin="round"/>
<path d="M21 14.1429C22.1835 14.1429 23.1429 13.1835 23.1429 12C23.1429 10.8166 22.1835 9.85718 21 9.85718C19.8165 9.85718 18.8571 10.8166 18.8571 12C18.8571 13.1835 19.8165 14.1429 21 14.1429Z" stroke="#D9DADC" stroke-linecap="round" stroke-linejoin="round"/>
<path d="M3 14.1429C4.18347 14.1429 5.14286 13.1835 5.14286 12C5.14286 10.8166 4.18347 9.85718 3 9.85718C1.81654 9.85718 0.857147 10.8166 0.857147 12C0.857147 13.1835 1.81654 14.1429 3 14.1429Z" stroke="#D9DADC" stroke-linecap="round" stroke-linejoin="round"/>
</svg>
