<svg width="24" height="24" viewBox="0 0 24 24" xmlns="http://www.w3.org/2000/svg">
<path fill-rule="evenodd" clip-rule="evenodd" d="M3.53807 5.57037C3.01712 5.57037 2.74958 5.92747 2.74958 6.18792V17.8121C2.74958 18.0726 3.01712 18.4296 3.53807 18.4296H20.4615C20.9825 18.4296 21.25 18.0726 21.25 17.8121V6.18792C21.25 5.92747 20.9825 5.57037 20.4615 5.57037H3.53807ZM1.24958 6.18792C1.24958 4.93783 2.35966 4.07037 3.53807 4.07037H20.4615C21.6399 4.07037 22.75 4.93783 22.75 6.18792V17.8121C22.75 19.0622 21.6399 19.9296 20.4615 19.9296H3.53807C2.35966 19.9296 1.24958 19.0622 1.24958 17.8121V6.18792Z"/>
<path fill-rule="evenodd" clip-rule="evenodd" d="M1.40201 6.07661C1.65232 5.74658 2.12277 5.68195 2.4528 5.93226L11.4643 12.7669C11.6051 12.8701 11.7942 12.9343 11.9998 12.9343C12.2054 12.9343 12.3945 12.8702 12.5353 12.7669L21.5468 5.93226C21.8768 5.68195 22.3473 5.74658 22.5976 6.07661C22.8479 6.40664 22.7833 6.87709 22.4532 7.1274L13.4307 13.9704C13.0189 14.2753 12.5124 14.4343 11.9998 14.4343C11.4872 14.4343 10.9807 14.2752 10.5689 13.9703L10.5619 13.9652L1.54636 7.1274C1.21633 6.87709 1.15171 6.40664 1.40201 6.07661Z"/>
</svg>
