<svg width="26" height="26" viewBox="0 0 26 26" fill="none" xmlns="http://www.w3.org/2000/svg">
<path d="M15.9835 10.8333C17.03 10.8333 17.8793 11.6827 17.8793 12.7292V17.8739C17.8793 19.1671 17.3656 20.4074 16.4512 21.3218C15.5367 22.2363 14.2965 22.75 13.0032 22.75C11.71 22.75 10.4698 22.2363 9.55533 21.3218C8.64088 20.4074 8.12716 19.1671 8.12716 17.8739V12.7292C8.12716 11.6827 8.97541 10.8333 10.023 10.8333H15.9835ZM7.72524 10.8333C7.33504 11.3029 7.10034 11.8821 7.05357 12.4908L7.04274 12.7292V17.8739C7.04274 18.7915 7.25074 19.6603 7.62124 20.436C6.97913 20.6078 6.30611 20.6296 5.65423 20.4997C5.00234 20.3698 4.38906 20.0918 3.8618 19.6871C3.33454 19.2823 2.90743 18.7617 2.61349 18.1656C2.31956 17.5694 2.16667 16.9136 2.16666 16.2489V12.7292C2.16667 12.2534 2.34559 11.795 2.66789 11.445C2.99019 11.095 3.43231 10.879 3.90649 10.8398L4.06249 10.8333H7.72524ZM18.2812 10.8333H21.9375C22.984 10.8333 23.8333 11.6827 23.8333 12.7292V16.25C23.8335 16.9143 23.6809 17.5697 23.3874 18.1656C23.0939 18.7615 22.6674 19.2819 22.1407 19.6867C21.614 20.0915 21.0013 20.3698 20.35 20.5001C19.6986 20.6304 19.026 20.6092 18.3842 20.4382C18.7092 19.7578 18.9085 19.0082 18.9529 18.2152L18.9627 17.8739V12.7292C18.9627 12.0088 18.7081 11.3479 18.2812 10.8333ZM13 3.25C13.8619 3.25 14.6886 3.59241 15.2981 4.2019C15.9076 4.8114 16.25 5.63805 16.25 6.5C16.25 7.36195 15.9076 8.1886 15.2981 8.7981C14.6886 9.40759 13.8619 9.75 13 9.75C12.138 9.75 11.3114 9.40759 10.7019 8.7981C10.0924 8.1886 9.74999 7.36195 9.74999 6.5C9.74999 5.63805 10.0924 4.8114 10.7019 4.2019C11.3114 3.59241 12.138 3.25 13 3.25ZM20.0417 4.33333C20.7599 4.33333 21.4488 4.61867 21.9567 5.12659C22.4646 5.6345 22.75 6.32337 22.75 7.04167C22.75 7.75996 22.4646 8.44884 21.9567 8.95675C21.4488 9.46466 20.7599 9.75 20.0417 9.75C19.3234 9.75 18.6345 9.46466 18.1266 8.95675C17.6187 8.44884 17.3333 7.75996 17.3333 7.04167C17.3333 6.32337 17.6187 5.6345 18.1266 5.12659C18.6345 4.61867 19.3234 4.33333 20.0417 4.33333ZM5.95832 4.33333C6.67662 4.33333 7.36549 4.61867 7.8734 5.12659C8.38131 5.6345 8.66666 6.32337 8.66666 7.04167C8.66666 7.75996 8.38131 8.44884 7.8734 8.95675C7.36549 9.46466 6.67662 9.75 5.95832 9.75C5.24003 9.75 4.55115 9.46466 4.04324 8.95675C3.53533 8.44884 3.24999 7.75996 3.24999 7.04167C3.24999 6.32337 3.53533 5.6345 4.04324 5.12659C4.55115 4.61867 5.24003 4.33333 5.95832 4.33333Z" fill="#2965CE"/>
</svg>
