<svg width="24" height="24" viewBox="0 0 24 24" xmlns="http://www.w3.org/2000/svg">
<path fill-rule="evenodd" clip-rule="evenodd" d="M4.20372 2.6663C4.63981 2.2393 5.22572 2 5.83611 2C6.44651 2 7.03241 2.2393 7.46851 2.6663L7.47505 2.67271L10.1605 5.36233C10.5868 5.79678 10.8254 6.38131 10.8254 6.98993C10.8254 7.59855 10.5868 8.18307 10.1604 8.61752C10.1571 8.62097 10.1537 8.62437 10.1502 8.62774C10.086 8.69138 10.0349 8.76718 10 8.85081C9.96487 8.9349 9.94675 9.02518 9.94675 9.11641C9.94675 9.20764 9.96487 9.29792 10 9.38201C10.0351 9.46609 10.0866 9.54226 10.1513 9.60611L10.1555 9.61028L14.384 13.8453C14.517 13.9741 14.6945 14.046 14.8792 14.046C15.065 14.046 15.2438 13.9732 15.377 13.8427C15.697 13.5294 16.2103 13.5348 16.5236 13.8547C16.8364 14.1742 16.8315 14.6864 16.5131 14.9999L15.3755 13.8442C15.8094 13.4171 16.3936 13.1776 17.0024 13.1776C17.6112 13.1776 18.1954 13.4171 18.6292 13.8442L18.6312 13.8461L21.3353 16.526C21.7616 16.9627 22 17.549 22 18.1592C22 18.7695 21.7615 19.3557 21.3352 19.7924L21.3223 19.8053L20.6924 20.4221C19.8362 21.2888 18.7083 21.8347 17.4977 21.9681C16.2845 22.1017 15.0624 21.8129 14.0371 21.1504L14.0231 21.1412C9.62605 18.1696 5.8365 14.384 2.85824 9.98801L2.84786 9.9723C2.18659 8.94571 1.89849 7.72254 2.03184 6.50843C2.16491 5.29682 2.70963 4.16765 3.57493 3.31008L4.19081 2.67923L4.20372 2.6663ZM17.4909 14.9991C17.3603 14.8709 17.1848 14.7993 17.0024 14.7993C16.8196 14.7993 16.6438 14.8712 16.5131 14.9999L16.5116 15.0013C16.0755 15.4283 15.4896 15.6676 14.8792 15.6676C14.2688 15.6676 13.6829 15.4283 13.2468 15.0013L13.2402 14.9949L9.00986 10.758L9.01215 10.7603L9.58171 10.1832L9.00794 10.7561L9.00986 10.758C8.79326 10.5436 8.62126 10.2884 8.50376 10.0072C8.38584 9.72505 8.32513 9.42224 8.32513 9.11641C8.32513 8.81058 8.38584 8.50777 8.50376 8.22558C8.6206 7.94598 8.79131 7.6921 9.00618 7.47848C9.13274 7.3478 9.20379 7.17261 9.20379 6.98993C9.20379 6.80667 9.13228 6.63094 9.00496 6.50013L6.33132 3.82238C6.19833 3.69351 6.02074 3.62162 5.83611 3.62162C5.65271 3.62162 5.47626 3.69255 5.34357 3.81981L4.72027 4.45826C4.11681 5.05463 3.73651 5.84103 3.64377 6.68547C3.55135 7.52693 3.75002 8.37449 4.20627 9.08659C7.06626 13.3057 10.7039 16.9394 14.9238 19.7927C15.6347 20.2498 16.4805 20.4487 17.3201 20.3562C18.1623 20.2634 18.9472 19.883 19.5426 19.2787L19.5528 19.2683L20.18 18.6543C20.3071 18.5213 20.3784 18.344 20.3784 18.1592C20.3784 17.9738 20.3066 17.7959 20.1787 17.6628L17.4909 14.9991Z"/>
<path d="M15.5557 13.6892L15.3193 13.8919L15.4966 14.3606L16.4721 15.0363L16.6199 14.9139L17.1098 14.4113L17.0802 13.8919L16.0329 13.4654L15.5557 13.6892Z"/>
<path d="M9.10304 10.8471L8.95524 10.6951C9.15512 10.4417 9.55912 9.93497 9.57601 9.93497C9.59291 9.93497 9.7576 10.0419 9.83784 10.0954L9.10304 10.8471Z"/>
</svg>
