<svg width="26" height="26" viewBox="0 0 26 26" fill="none" xmlns="http://www.w3.org/2000/svg">
<path d="M23.2592 12.545L16.3042 5.60085C16.127 5.42265 15.8934 5.31159 15.6433 5.28668L5.51415 4.33335C5.35548 4.31876 5.19554 4.33935 5.04573 4.39365C4.89593 4.44795 4.75995 4.53464 4.64749 4.64752C4.5346 4.75998 4.44792 4.89596 4.39362 5.04577C4.33931 5.19557 4.31873 5.35551 4.33332 5.51418L5.28665 15.6433C5.31156 15.8934 5.42262 16.127 5.60082 16.3042L12.545 23.2592C12.9174 23.6265 13.4194 23.8328 13.9425 23.8334C14.4623 23.8322 14.9607 23.6259 15.3292 23.2592L23.2592 15.3292C23.6276 14.9596 23.8345 14.459 23.8345 13.9371C23.8345 13.4152 23.6276 12.9146 23.2592 12.545ZM12.5233 12.545C12.2961 12.7725 12.0066 12.9274 11.6913 12.9903C11.376 13.0532 11.0492 13.0211 10.7522 12.8982C10.4551 12.7752 10.2012 12.567 10.0226 12.2997C9.84391 12.0324 9.74856 11.7182 9.74856 11.3967C9.74856 11.0752 9.84391 10.7609 10.0226 10.4937C10.2012 10.2264 10.4551 10.0181 10.7522 9.89518C11.0492 9.77225 11.376 9.74019 11.6913 9.80305C12.0066 9.86592 12.2961 10.0209 12.5233 10.2483C12.8237 10.5507 12.9922 10.9596 12.9922 11.3858C12.9922 11.8121 12.8237 12.221 12.5233 12.5233V12.545Z" fill="#2965CE"/>
</svg>
