<svg width="26" height="26" viewBox="0 0 26 26" fill="none" xmlns="http://www.w3.org/2000/svg">
<path d="M6.50004 23.8334C5.90421 23.8334 5.39432 23.6214 4.97037 23.1974C4.54571 22.7728 4.33337 22.2625 4.33337 21.6667V4.33335C4.33337 3.73752 4.54571 3.22727 4.97037 2.8026C5.39432 2.37866 5.90421 2.16669 6.50004 2.16669H19.5C20.0959 2.16669 20.6061 2.37866 21.0308 2.8026C21.4547 3.22727 21.6667 3.73752 21.6667 4.33335V21.6667C21.6667 22.2625 21.4547 22.7728 21.0308 23.1974C20.6061 23.6214 20.0959 23.8334 19.5 23.8334H6.50004ZM11.9167 11.9167L14.625 10.2917L17.3334 11.9167V4.33335H11.9167V11.9167Z" fill="#2965CE"/>
</svg>
