<svg width="32" height="32" viewBox="0 0 32 32" xmlns="http://www.w3.org/2000/svg">
<path d="M16 26.6667C18.8289 26.6667 21.542 25.5429 23.5424 23.5426C25.5428 21.5422 26.6666 18.8291 26.6666 16.0001C26.6666 13.1711 25.5428 10.458 23.5424 8.45761C21.542 6.45722 18.8289 5.33341 16 5.33341C13.171 5.33341 10.4579 6.45722 8.45749 8.45761C6.4571 10.458 5.33329 13.1711 5.33329 16.0001C5.33329 18.8291 6.4571 21.5422 8.45749 23.5426C10.4579 25.5429 13.171 26.6667 16 26.6667ZM16 29.3334C8.63596 29.3334 2.66663 23.3641 2.66663 16.0001C2.66663 8.63608 8.63596 2.66675 16 2.66675C23.364 2.66675 29.3333 8.63608 29.3333 16.0001C29.3333 23.3641 23.364 29.3334 16 29.3334Z"/>
<path d="M20.8586 15.2054C20.8746 13.2161 19.2333 11.3921 17.2 11.1401L17.0666 11.1201C16.9647 11.0999 16.8612 11.0883 16.7573 11.0854C16.34 11.0854 16.2293 11.3868 16.2 11.5668C16.1833 11.6415 16.1818 11.7189 16.1956 11.7942C16.2093 11.8696 16.238 11.9414 16.28 12.0054C16.4186 12.1988 16.6613 12.2321 16.856 12.2614C16.9133 12.2694 16.968 12.2761 17.012 12.2881C18.84 12.7081 19.456 13.3708 19.756 15.2414C19.764 15.2881 19.7666 15.3441 19.7693 15.4041C19.7826 15.6268 19.8106 16.0921 20.296 16.0921C20.336 16.0921 20.3786 16.0894 20.424 16.0814C20.876 16.0108 20.8613 15.5854 20.8546 15.3814C20.8513 15.3322 20.8513 15.2827 20.8546 15.2334C20.8561 15.2246 20.857 15.2157 20.8573 15.2068L20.8586 15.2054Z"/>
<path d="M16.64 10.4095C16.6933 10.4135 16.7467 10.4175 16.788 10.4242C19.788 10.9015 21.1693 12.3682 21.552 15.4908C21.5587 15.5442 21.5587 15.6082 21.56 15.6775C21.564 15.9215 21.572 16.4282 22.1 16.4388H22.116C22.1885 16.4427 22.261 16.431 22.3286 16.4046C22.3962 16.3781 22.4574 16.3375 22.508 16.2855C22.672 16.1082 22.6613 15.8455 22.652 15.6322C22.6493 15.5815 22.6467 15.5322 22.648 15.4895C22.6853 12.2962 20.008 9.40018 16.9173 9.29351L16.88 9.29485C16.8681 9.2966 16.8561 9.29749 16.844 9.29751C16.8133 9.29751 16.7747 9.29485 16.7347 9.29218C16.6815 9.28732 16.6281 9.28465 16.5747 9.28418C16.0827 9.28418 15.9893 9.64418 15.9773 9.86018C15.9507 10.3575 16.416 10.3935 16.64 10.4095ZM21.4067 19.5255C21.3425 19.4752 21.2789 19.4241 21.216 19.3722C20.888 19.1002 20.5387 18.8495 20.2027 18.6068C20.1324 18.5563 20.0621 18.5056 19.992 18.4548C19.56 18.1428 19.172 17.9895 18.8053 17.9895C18.312 17.9895 17.8813 18.2722 17.5253 18.8282C17.368 19.0735 17.176 19.1935 16.9413 19.1935C16.7775 19.1877 16.6169 19.1463 16.4707 19.0722C15.0773 18.4188 14.0813 17.4188 13.512 16.0988C13.2373 15.4588 13.3253 15.0428 13.8107 14.7028C14.0853 14.5108 14.5973 14.1522 14.5613 13.4655C14.5213 12.6855 12.8533 10.3388 12.1507 10.0722C11.8509 9.95906 11.5204 9.95811 11.22 10.0695C10.4133 10.3495 9.83334 10.8428 9.54401 11.4922C9.26401 12.1215 9.27734 12.8588 9.58134 13.6268C10.4573 15.8482 11.688 17.7842 13.2427 19.3815C14.7627 20.9455 16.632 22.2255 18.7973 23.1882C18.992 23.2748 19.1973 23.3215 19.3467 23.3562L19.4733 23.3882C19.4907 23.3932 19.5086 23.3959 19.5267 23.3962H19.544C20.5627 23.3962 21.7853 22.4362 22.1613 21.3402C22.4907 20.3802 21.8893 19.9068 21.4067 19.5268V19.5255ZM17.0907 12.9468C16.9173 12.9508 16.5533 12.9602 16.4253 13.3415C16.3667 13.5202 16.3733 13.6748 16.4467 13.8015C16.5547 13.9882 16.7627 14.0455 16.9507 14.0762C17.6333 14.1895 17.9853 14.5802 18.0547 15.3028C18.088 15.6415 18.308 15.8762 18.5907 15.8762C18.612 15.8766 18.6334 15.8757 18.6547 15.8735C18.9947 15.8308 19.1587 15.5735 19.144 15.1068C19.1493 14.6188 18.9027 14.0668 18.4827 13.6268C18.0613 13.1842 17.5533 12.9348 17.0907 12.9468Z"/>
</svg>
